HIERARCHY
ROOT joint_Root
{
	OFFSET 0.0 0.0 0.0
	CHANNELS 6 Xposition Yposition Zposition Zrotation Xrotation Yrotation 
	JOINT Hips
	{
		OFFSET 4.5925 91.4895 -427.239
		CHANNELS 6 Xposition Yposition Zposition Zrotation Xrotation Yrotation 
		JOINT Spine
		{
			OFFSET 15.7357 0.0 0.0
			CHANNELS 6 Xposition Yposition Zposition Zrotation Xrotation Yrotation 
			JOINT Chest
			{
				OFFSET 8.98455 -0.406207 0.0
				CHANNELS 6 Xposition Yposition Zposition Zrotation Xrotation Yrotation 
				JOINT Neck
				{
					OFFSET 16.3773 0.0 0.0
					CHANNELS 6 Xposition Yposition Zposition Zrotation Xrotation Yrotation 
					JOINT Head
					{
						OFFSET 6.45672 0.0 0.0
						CHANNELS 6 Xposition Yposition Zposition Zrotation Xrotation Yrotation 
						End Site
						{
							OFFSET 0.0 0.0 0.0
						}
					}
				}
				JOINT Shoulder_L
				{
					OFFSET 12.9942 -0.242716 4.98039
					CHANNELS 6 Xposition Yposition Zposition Zrotation Xrotation Yrotation 
					JOINT UpperArm_L
					{
						OFFSET 5.34809 0.0 0.0
						CHANNELS 6 Xposition Yposition Zposition Zrotation Xrotation Yrotation 
						JOINT LowerArm_L
						{
							OFFSET 24.3286 1.87007e-05 0.0
							CHANNELS 6 Xposition Yposition Zposition Zrotation Xrotation Yrotation 
							JOINT Hand_L
							{
								OFFSET 22.2916 0.0 0.0
								CHANNELS 6 Xposition Yposition Zposition Zrotation Xrotation Yrotation 
								End Site
								{
									OFFSET 0.0 0.0 0.0
								}
							}
						}
					}
				}
				JOINT Shoulder_R
				{
					OFFSET 12.9945 -0.242716 -4.98039
					CHANNELS 6 Xposition Yposition Zposition Zrotation Xrotation Yrotation 
					JOINT UpperArm_R
					{
						OFFSET -5.34813 0.0 0.0
						CHANNELS 6 Xposition Yposition Zposition Zrotation Xrotation Yrotation 
						JOINT LowerArm_R
						{
							OFFSET -24.3289 0.000322201 0.0
							CHANNELS 6 Xposition Yposition Zposition Zrotation Xrotation Yrotation 
							JOINT Hand_R
							{
								OFFSET -22.2915 -0.000108084 0.0
								CHANNELS 6 Xposition Yposition Zposition Zrotation Xrotation Yrotation 
								End Site
								{
									OFFSET 0.0 0.0 0.0
								}
							}
						}
					}
				}
			}
		}
		JOINT UpperLeg_L
		{
			OFFSET -2.19248 -6.46944 0.0
			CHANNELS 6 Xposition Yposition Zposition Zrotation Xrotation Yrotation 
			JOINT LowerLeg_L
			{
				OFFSET 39.0811 0.0 -1.23785e-05
				CHANNELS 6 Xposition Yposition Zposition Zrotation Xrotation Yrotation 
				JOINT Foot_L
				{
					OFFSET 40.9854 0.0 -1.26872e-05
					CHANNELS 6 Xposition Yposition Zposition Zrotation Xrotation Yrotation 
					JOINT Toes_L
					{
						OFFSET 11.7543 0.0 0.0
						CHANNELS 6 Xposition Yposition Zposition Zrotation Xrotation Yrotation 
						End Site
						{
							OFFSET 0.0 0.0 0.0
						}
					}
				}
			}
		}
		JOINT UpperLeg_R
		{
			OFFSET -2.19251 6.46944 0.0
			CHANNELS 6 Xposition Yposition Zposition Zrotation Xrotation Yrotation 
			JOINT LowerLeg_R
			{
				OFFSET -39.0811 -0.00228153 -0.0401928
				CHANNELS 6 Xposition Yposition Zposition Zrotation Xrotation Yrotation 
				JOINT Foot_R
				{
					OFFSET -40.9854 0.0 0.0
					CHANNELS 6 Xposition Yposition Zposition Zrotation Xrotation Yrotation 
					JOINT Toes_R
					{
						OFFSET -11.7543 0.0 0.0
						CHANNELS 6 Xposition Yposition Zposition Zrotation Xrotation Yrotation 
						End Site
						{
							OFFSET 0.0 0.0 0.0
						}
					}
				}
			}
		}
	}
}
MOTION
Frames:	5
Frame Time:	0.0333333
0.000000 0.000000 0.000000 0.000000 0.000000 -0.000000 -1.121340 80.611700 -2.453610 87.707700 -2.075550 8.994240 15.735700 0.000005 -0.000001 87.888100 79.595600 -87.661400 8.984550 -0.406207 -0.000000 13.031000 -0.748671 0.538977 16.377300 -0.000001 -0.000001 -3.697180 -3.546080 1.299340 6.456720 -0.000001 -0.000000 -9.874150 -3.432710 2.881270 12.994200 -0.242716 4.980390 -90.787600 2.827700 -74.430900 5.348090 -0.000007 -0.000001 -58.931700 36.692000 -23.390900 24.328600 0.000019 0.000005 10.900200 22.867800 -26.363600 22.291600 -0.000001 0.000005 4.064150 5.330950 -0.894880 12.994500 -0.242716 -4.980390 89.004200 7.071770 -81.964300 -5.348130 -0.000001 -0.000004 -51.186000 46.694200 -22.016400 -24.328900 0.000322 -0.000009 2.192700 5.004040 -23.722300 -22.291500 -0.000108 -0.000004 1.972220 5.235070 1.821870 -2.192480 -6.469440 -0.000000 -172.740000 -9.177020 -20.812900 39.081100 -0.000007 -0.000012 -0.691127 0.291367 67.142000 40.985400 -0.000006 -0.000013 0.319590 3.927300 -87.128900 11.754300 -0.000000 0.000003 -0.000437 -0.003558 -16.708300 -2.192510 6.469440 -0.000001 179.745000 9.986450 160.034000 -39.081100 -0.002282 -0.040193 0.103686 -0.043790 66.463200 -40.985400 0.000008 0.000006 7.481790 1.985580 -87.408100 -11.754300 -0.000006 -0.000006 -0.286700 -0.354754 -17.067900
0.000000 0.000000 0.000000 0.000000 0.000000 -0.000000 -1.107410 82.168900 -1.465590 88.187400 -2.482300 9.670070 15.735700 0.000005 -0.000001 87.485500 80.357700 -87.426600 8.984550 -0.406207 -0.000000 11.501300 -0.837309 0.202037 16.377300 -0.000001 -0.000001 -2.619100 -3.504480 1.358700 6.456720 -0.000001 -0.000000 -7.903210 -3.142030 2.259200 12.994200 -0.242716 4.980390 -90.462400 1.655570 -74.389800 5.348090 -0.000007 -0.000001 -52.931900 37.581700 -28.575300 24.328600 0.000019 0.000005 12.632400 25.459600 -27.536000 22.291600 -0.000001 0.000005 -3.062990 5.397430 -2.852680 12.994500 -0.242716 -4.980390 89.238200 5.289060 -81.789500 -5.348130 -0.000001 -0.000004 -42.887300 50.872500 -30.894500 -24.328900 0.000322 -0.000009 4.577280 10.015400 -24.724600 -22.291500 -0.000108 -0.000004 -14.730800 5.243640 1.677640 -2.192480 -6.469440 -0.000000 -173.031000 -9.503400 -16.973000 39.081100 -0.000007 -0.000012 -0.630457 0.326512 62.621900 40.985400 -0.000006 -0.000013 0.146391 3.910150 -85.724400 11.754300 -0.000000 0.000003 -0.000400 -0.003310 -16.699600 -2.192510 6.469440 -0.000001 179.006000 9.624950 163.540000 -39.081100 -0.002282 -0.040193 0.091600 -0.046474 62.271700 -40.985400 0.000008 0.000006 7.336380 2.415430 -85.902000 -11.754300 -0.000006 -0.000006 -0.377911 -0.465876 -17.160400
0.000000 0.000000 0.000000 0.000000 0.000000 -0.000000 -1.047510 84.551500 -0.574272 88.821000 -3.049610 9.935390 15.735700 0.000005 -0.000001 87.032800 81.545300 -87.168300 8.984550 -0.406207 -0.000000 9.120520 -0.872214 -0.201318 16.377300 -0.000001 -0.000001 0.213670 -3.300570 1.428470 6.456720 -0.000001 -0.000000 -5.558420 -2.944720 1.767060 12.994200 -0.242716 4.980390 -90.126100 0.427485 -73.551100 5.348090 -0.000007 -0.000001 -46.678700 30.342500 -34.644500 24.328600 0.000019 0.000005 12.276800 22.580300 -29.542900 22.291600 -0.000001 0.000005 -0.981133 5.358730 -1.654610 12.994500 -0.242716 -4.980390 89.441300 3.409350 -80.685900 -5.348130 -0.000001 -0.000004 -34.009200 45.742700 -39.762800 -24.328900 0.000322 -0.000009 3.955600 7.213130 -28.855100 -22.291500 -0.000108 -0.000004 -20.514200 5.122090 4.595570 -2.192480 -6.469440 -0.000000 -173.509000 -10.325900 -12.228100 39.081100 -0.000007 -0.000012 -0.529299 0.367204 55.250000 40.985400 -0.000006 -0.000013 0.054601 4.133590 -82.775700 11.754300 -0.000000 0.000003 -0.000301 -0.002610 -16.674800 -2.192510 6.469440 -0.000001 177.953000 9.941010 167.730000 -39.081100 -0.002282 -0.040193 0.074057 -0.048645 55.520300 -40.985400 0.000008 0.000006 7.445670 3.942820 -82.791900 -11.754300 -0.000006 -0.000006 -0.552902 -0.678586 -17.430300
0.000000 0.000000 0.000000 0.000000 0.000000 -0.000000 -0.953512 86.975700 0.244419 89.382400 -3.725420 10.062500 15.735700 0.000005 -0.000001 87.305000 82.825400 -87.514000 8.984550 -0.406207 -0.000000 6.566530 -0.670416 -0.379012 16.377300 -0.000001 -0.000001 3.795640 -3.339000 1.555130 6.456720 -0.000001 -0.000000 -2.582660 -2.656100 1.267840 12.994200 -0.242716 4.980390 -89.675300 -1.082990 -73.313100 5.348090 -0.000007 -0.000001 -43.754800 15.918400 -40.653100 24.328600 0.000019 0.000005 12.813700 20.923600 -32.493400 22.291600 -0.000001 0.000005 2.445230 5.322770 -0.589426 12.994500 -0.242716 -4.980390 89.726700 1.514340 -79.764100 -5.348130 -0.000001 -0.000004 -28.588500 32.828900 -45.623700 -24.328900 0.000322 -0.000009 4.962420 7.392800 -34.004200 -22.291500 -0.000108 -0.000004 -7.848730 5.209370 2.615350 -2.192480 -6.469440 -0.000000 -173.953000 -11.269500 -7.146210 39.081100 -0.000007 -0.000012 -0.410325 0.386334 46.725800 40.985400 -0.000006 -0.000013 -0.087917 4.336320 -79.150800 11.754300 -0.000000 0.000003 -0.000206 -0.001902 -16.649200 -2.192510 6.469440 -0.000001 176.742000 10.959100 172.149000 -39.081100 -0.002282 -0.040193 0.057194 -0.048798 47.864500 -40.985400 0.000008 0.000006 7.610800 6.352530 -78.998500 -11.754300 -0.000006 -0.000006 -0.583510 -0.714244 -18.021500
0.000000 0.000000 0.000000 0.000000 0.000000 -0.000000 -0.908333 88.770200 0.458863 89.507000 -4.283380 8.291890 15.735700 0.000005 -0.000001 87.221800 84.332100 -87.364000 8.984550 -0.406207 -0.000000 3.555940 -0.543538 -0.267205 16.377300 -0.000001 -0.000001 5.613220 -3.307300 1.977670 6.456720 -0.000001 -0.000000 -0.072956 -2.376150 0.720828 12.994200 -0.242716 4.980390 -89.012200 -3.220050 -72.936600 5.348090 -0.000007 -0.000001 -40.684400 0.457234 -48.266800 24.328600 0.000019 0.000005 13.382400 17.597000 -38.209400 22.291600 -0.000001 0.000005 8.717230 5.320730 -0.496058 12.994500 -0.242716 -4.980390 90.097200 -0.492318 -78.863700 -5.348130 -0.000001 -0.000004 -26.761200 14.595100 -49.859400 -24.328900 0.000322 -0.000009 9.322970 10.101300 -43.097200 -22.291500 -0.000108 -0.000004 10.728200 5.342730 -0.996167 -2.192480 -6.469440 -0.000000 -174.458000 -11.943900 -5.249620 39.081100 -0.000007 -0.000012 -0.317720 0.382927 39.683600 40.985400 -0.000006 -0.000013 -0.342113 4.222160 -75.766200 11.754300 -0.000000 0.000003 -0.000134 -0.001316 -16.627700 -2.192510 6.469440 -0.000001 176.496000 12.260900 173.561000 -39.081100 -0.002282 -0.040193 0.042390 -0.044301 41.442900 -40.985400 0.000008 0.000006 7.480570 8.732990 -75.459800 -11.754300 -0.000006 -0.000006 -0.609951 -0.744263 -18.452500
